<mxfile host="Electron" agent="Mozilla/5.0 (Macintosh; Intel Mac OS X 10_15_7) AppleWebKit/537.36 (KHTML, like Gecko) draw.io/26.1.1 Chrome/132.0.6834.210 Electron/34.3.3 Safari/537.36" version="26.1.1">
  <diagram name="Page-1" id="WX5Pu4UHTkADLmyuCC2r">
    <mxGraphModel dx="1114" dy="878" grid="1" gridSize="10" guides="1" tooltips="1" connect="1" arrows="1" fold="1" page="1" pageScale="1" pageWidth="827" pageHeight="1169" math="0" shadow="0">
      <root>
        <mxCell id="0" />
        <mxCell id="1" parent="0" />
        <mxCell id="iVwOSMSJ75Abg2VZp1Ah-1" value="백그라운드 스레드" style="rounded=1;whiteSpace=wrap;html=1;verticalAlign=top;fontStyle=1" vertex="1" parent="1">
          <mxGeometry x="490" y="280" width="120" height="100" as="geometry" />
        </mxCell>
        <mxCell id="iVwOSMSJ75Abg2VZp1Ah-2" value="" style="rounded=1;whiteSpace=wrap;html=1;" vertex="1" parent="1">
          <mxGeometry x="500" y="310" width="100" height="60" as="geometry" />
        </mxCell>
        <mxCell id="iVwOSMSJ75Abg2VZp1Ah-3" value="" style="rounded=1;whiteSpace=wrap;html=1;verticalAlign=top;fontStyle=1" vertex="1" parent="1">
          <mxGeometry x="490" y="110" width="120" height="80" as="geometry" />
        </mxCell>
        <mxCell id="iVwOSMSJ75Abg2VZp1Ah-4" value="coroutine#1" style="rounded=0;whiteSpace=wrap;html=1;fillColor=#dae8fc;strokeColor=#6c8ebf;" vertex="1" parent="1">
          <mxGeometry x="510" y="140" width="80" height="30" as="geometry" />
        </mxCell>
        <mxCell id="iVwOSMSJ75Abg2VZp1Ah-5" value="coroutine#2" style="rounded=0;whiteSpace=wrap;html=1;fillColor=#dae8fc;strokeColor=#6c8ebf;" vertex="1" parent="1">
          <mxGeometry x="510" y="325" width="80" height="30" as="geometry" />
        </mxCell>
        <mxCell id="iVwOSMSJ75Abg2VZp1Ah-6" value="메인 스레드" style="text;html=1;align=center;verticalAlign=middle;whiteSpace=wrap;rounded=0;fontStyle=1" vertex="1" parent="1">
          <mxGeometry x="520" y="80" width="60" height="30" as="geometry" />
        </mxCell>
        <mxCell id="iVwOSMSJ75Abg2VZp1Ah-7" value="공유 스레드 풀" style="text;html=1;align=center;verticalAlign=middle;whiteSpace=wrap;rounded=0;fontStyle=1" vertex="1" parent="1">
          <mxGeometry x="507" y="250" width="80" height="30" as="geometry" />
        </mxCell>
        <mxCell id="iVwOSMSJ75Abg2VZp1Ah-8" value="작업 대기열" style="rounded=1;whiteSpace=wrap;html=1;verticalAlign=top;fontStyle=1" vertex="1" parent="1">
          <mxGeometry x="240" y="200" width="120" height="100" as="geometry" />
        </mxCell>
        <mxCell id="iVwOSMSJ75Abg2VZp1Ah-9" value="" style="rounded=1;whiteSpace=wrap;html=1;" vertex="1" parent="1">
          <mxGeometry x="250" y="230" width="100" height="60" as="geometry" />
        </mxCell>
        <mxCell id="iVwOSMSJ75Abg2VZp1Ah-10" value="Dispatchers.IO" style="text;html=1;align=center;verticalAlign=middle;whiteSpace=wrap;rounded=0;fontStyle=1" vertex="1" parent="1">
          <mxGeometry x="257" y="170" width="80" height="30" as="geometry" />
        </mxCell>
        <mxCell id="iVwOSMSJ75Abg2VZp1Ah-12" style="rounded=0;orthogonalLoop=1;jettySize=auto;html=1;entryX=0;entryY=0.5;entryDx=0;entryDy=0;endArrow=block;endFill=1;exitX=1;exitY=0.5;exitDx=0;exitDy=0;" edge="1" parent="1" source="iVwOSMSJ75Abg2VZp1Ah-13" target="iVwOSMSJ75Abg2VZp1Ah-5">
          <mxGeometry relative="1" as="geometry" />
        </mxCell>
        <mxCell id="iVwOSMSJ75Abg2VZp1Ah-13" value="coroutine#2" style="rounded=0;whiteSpace=wrap;html=1;fillColor=#dae8fc;strokeColor=#6c8ebf;" vertex="1" parent="1">
          <mxGeometry x="260" y="245" width="80" height="30" as="geometry" />
        </mxCell>
        <mxCell id="iVwOSMSJ75Abg2VZp1Ah-14" value="coroutine#2 요청&lt;div&gt;&amp;nbsp;async(Dispatcher.IO)&lt;/div&gt;" style="text;html=1;align=center;verticalAlign=middle;whiteSpace=wrap;rounded=0;" vertex="1" parent="1">
          <mxGeometry x="90" y="196" width="160" height="30" as="geometry" />
        </mxCell>
        <mxCell id="iVwOSMSJ75Abg2VZp1Ah-15" value="dispatch" style="text;html=1;align=center;verticalAlign=middle;whiteSpace=wrap;rounded=0;" vertex="1" parent="1">
          <mxGeometry x="370" y="300" width="70" height="30" as="geometry" />
        </mxCell>
        <mxCell id="iVwOSMSJ75Abg2VZp1Ah-16" value="" style="endArrow=block;html=1;rounded=0;entryX=0;entryY=0.5;entryDx=0;entryDy=0;endFill=1;" edge="1" parent="1">
          <mxGeometry width="50" height="50" relative="1" as="geometry">
            <mxPoint x="110" y="231" as="sourcePoint" />
            <mxPoint x="240" y="231" as="targetPoint" />
          </mxGeometry>
        </mxCell>
        <mxCell id="iVwOSMSJ75Abg2VZp1Ah-18" style="edgeStyle=orthogonalEdgeStyle;rounded=0;orthogonalLoop=1;jettySize=auto;html=1;entryX=0;entryY=0.5;entryDx=0;entryDy=0;endArrow=block;endFill=1;" edge="1" parent="1" source="iVwOSMSJ75Abg2VZp1Ah-17" target="iVwOSMSJ75Abg2VZp1Ah-13">
          <mxGeometry relative="1" as="geometry" />
        </mxCell>
        <mxCell id="iVwOSMSJ75Abg2VZp1Ah-17" value="coroutine#2" style="rounded=0;whiteSpace=wrap;html=1;fillColor=#dae8fc;strokeColor=#6c8ebf;" vertex="1" parent="1">
          <mxGeometry x="130" y="245" width="80" height="30" as="geometry" />
        </mxCell>
      </root>
    </mxGraphModel>
  </diagram>
</mxfile>
